<svg xmlns="http://www.w3.org/2000/svg" version="1.1" xmlns:xlink="http://www.w3.org/1999/xlink" xmlns:svgjs="http://svgjs.dev/svgjs" viewBox="0 0 800 800"><defs><linearGradient x1="50%" y1="0%" x2="50%" y2="100%" id="ccchaos-grad"><stop stop-color="#AFB7FF" stop-opacity="1" offset="0%"></stop><stop stop-color="#FFC690" stop-opacity="1" offset="100%"></stop></linearGradient></defs><g stroke-width="2.5" stroke="url(#ccchaos-grad)" fill="none" stroke-linecap="round"><path d="M393.72 40.47C399.69 40.07 405.62 39.93 411.49 40.07 420.26 40.57 437.53 43.05 446.01 44.99 451.65 46.45 457.22 48.14 462.73 50.03 473.76 54.02 484.54 58.71 495.06 63.99 505.6 69.29 515.91 75.01 525.97 81.06 536.08 86.92 545.98 93.01 555.67 99.27 565.45 105.25 575.07 111.4 584.52 117.7 594.12 123.74 603.59 129.98 612.92 136.44 622.44 142.73 631.84 149.32 641.1 156.22 650.53 163.05 659.8 170.26 668.86 177.86 678 185.47 686.86 193.51 695.33 201.97 703.73 210.48 711.63 219.43 718.9 228.78 725.91 238.19 732.15 248 737.53 258.17 742.46 268.39 746.43 278.95 749.35 289.82 751.77 300.73 753.17 311.92 753.52 323.36 753.56 329.08 753.36 334.87 752.93 340.71 752.44 346.55 751.75 352.45 750.86 358.4 749.96 364.34 748.9 370.34 747.69 376.38 746.51 382.42 745.21 388.51 743.81 394.63 742.49 400.75 741.12 406.85 739.7 412.9 738.4 418.96 737.07 424.97 735.74 430.95 734.54 436.93 733.35 442.87 732.16 448.77 731.11 454.66 730.07 460.52 729.03 466.33 727.37 477.95 725.66 489.38 723.86 500.61 722.43 511.85 720.73 522.89 718.7 533.69 716.78 544.5 714.35 555.07 711.34 565.39 708.21 575.7 704.38 585.74 699.84 595.48 695.04 605.21 689.48 614.62 683.18 623.68 676.59 632.71 669.29 641.37 661.34 649.63 653.15 657.83 644.37 665.61 635.07 672.93 625.61 680.19 615.7 686.98 605.42 693.27 595.06 699.49 584.38 705.21 573.44 710.42 562.48 715.57 551.3 720.21 539.94 724.32 528.6 728.41 517.09 732 505.47 735.06 493.86 738.15 482.14 740.73 470.33 742.8 464.43 743.85 458.5 744.78 452.56 745.58 446.62 746.4 440.66 747.09 434.68 747.65 428.7 748.22 422.71 748.67 416.7 748.99 410.69 749.33 404.66 749.53 398.62 749.6 392.58 749.68 386.6 749.62 380.67 749.43 371.82 749.1 354.4 747.75 345.84 746.74 340.15 746.02 334.52 745.16 328.96 744.17 317.82 742.17 306.92 739.59 296.3 736.47 285.65 733.29 275.26 729.55 265.15 725.25 255 720.88 245.11 715.95 235.51 710.5 225.86 704.97 216.47 698.91 207.38 692.36 198.21 685.76 189.33 678.68 180.74 671.16 172.07 663.62 163.7 655.65 155.64 647.31 147.52 638.96 139.71 630.26 132.25 621.23 124.74 612.21 117.6 602.88 110.85 593.27 104.09 583.69 97.75 573.83 91.87 563.71 86.01 553.63 80.64 543.28 75.79 532.7 70.99 522.15 66.74 511.36 63.07 500.34 59.48 489.34 56.47 478.12 54.09 466.68 52.93 460.96 51.92 455.19 51.07 449.37 50.24 443.56 49.57 437.68 49.06 431.76 48.57 425.84 48.24 419.87 48.07 413.86 47.91 407.84 47.91 401.77 48.08 395.66 48.26 389.55 48.6 383.46 49.09 377.41 49.58 371.35 50.23 365.33 51.02 359.34 51.82 353.34 52.75 347.38 53.83 341.46 54.9 335.54 56.11 329.66 57.45 323.83 60.1 312.15 63.26 300.66 66.89 289.4 70.45 278.15 74.48 267.14 78.93 256.41 83.31 245.73 88.1 235.36 93.3 225.36 98.42 215.43 103.95 205.89 109.87 196.79 115.72 187.8 121.99 179.28 128.64 171.26 135.26 163.36 142.3 155.97 149.72 149.11 157.15 142.33 164.98 136.05 173.2 130.26 181.45 124.47 190.09 119.1 199.1 114.12 208.15 109 217.57 104.18 227.32 99.61 237.11 94.77 247.23 90.1 257.64 85.59 268.09 80.74 278.82 76.02 289.78 71.48 300.78 66.65 312 62.08 323.41 57.86 329.12 55.71 334.87 53.68 340.66 51.78 346.46 49.9 352.29 48.17 358.16 46.63 364.03 45.13 369.93 43.83 375.86 42.75 381.78 41.75 387.74 40.98 393.71 40.47" stroke-dasharray="55 50" transform="rotate(0, 400, 400)" opacity="0.87"></path><path d="M392.62 53.6C404.1 52.94 415.39 53.29 426.48 54.63 437.57 56.37 448.46 59.03 459.12 62.53 469.79 66.28 480.25 70.73 490.48 75.77 500.73 80.84 510.78 86.35 520.62 92.21 530.51 97.93 540.22 103.9 549.75 110.06 559.37 115.98 568.85 122.08 578.17 128.33 587.63 134.35 596.96 140.55 606.16 146.96 615.5 153.19 624.72 159.69 633.79 166.46 642.97 173.15 651.97 180.17 660.73 187.55 669.52 194.9 678 202.64 686.06 210.77 694.03 218.92 701.47 227.47 708.29 236.4 714.83 245.38 720.63 254.73 725.58 264.43 730.13 274.17 733.75 284.25 736.4 294.63 738.6 305.04 739.84 315.74 740.13 326.69 740.08 337.65 739.21 348.86 737.57 360.27 735.88 371.68 733.63 383.3 730.93 395.08 728.5 406.87 725.89 418.54 723.18 430.07 720.96 441.59 718.71 452.98 716.47 464.19 714.73 475.41 712.93 486.46 711.03 497.31 709.5 508.16 707.73 518.82 705.65 529.26 703.71 539.69 701.31 549.9 698.4 559.85 695.42 569.8 691.81 579.48 687.55 588.86 683.09 598.22 677.92 607.28 672.07 615.98 665.97 624.65 659.2 632.96 651.8 640.87 644.18 648.73 635.98 656.17 627.26 663.18 618.39 670.11 609.06 676.6 599.34 682.6 589.53 688.54 579.38 694.01 568.95 698.97 558.49 703.89 547.79 708.32 536.9 712.24 526 716.15 514.93 719.58 503.73 722.5 492.54 725.46 481.22 727.93 469.81 729.91 458.41 731.94 446.92 733.5 435.35 734.56 423.8 735.7 412.17 736.34 400.49 736.46 388.81 736.66 377.35 736.31 366.12 735.45 354.89 734.63 343.88 733.26 333.13 731.37 322.35 729.48 311.81 727.03 301.53 724.05 291.23 721.04 281.16 717.47 271.36 713.36 261.52 709.2 251.93 704.49 242.61 699.27 233.24 693.98 224.12 688.17 215.28 681.9 206.37 675.56 197.73 668.76 189.37 661.53 180.94 654.27 172.8 646.59 164.95 638.55 157.05 630.49 149.46 622.08 142.21 613.35 134.92 604.62 127.98 595.59 121.44 586.28 114.88 576.99 108.73 567.43 103.04 557.62 97.37 547.84 92.17 537.81 87.48 527.55 82.85 517.32 78.75 506.85 75.21 496.18 71.75 485.52 68.86 474.65 66.58 463.58 64.37 452.53 62.77 441.27 61.8 429.83 60.9 418.39 60.61 406.77 60.96 394.98 61.36 383.19 62.36 371.52 63.93 359.99 65.51 348.46 67.63 337.08 70.26 325.88 72.85 314.69 75.94 303.69 79.47 292.92 82.94 282.17 86.86 271.67 91.18 261.46 95.42 251.3 100.06 241.45 105.09 231.97 110.04 222.55 115.37 213.53 121.08 204.92 126.72 196.41 132.75 188.35 139.15 180.76 145.51 173.26 152.26 166.23 159.37 159.68 166.48 153.19 173.98 147.14 181.84 141.54 189.71 135.9 197.96 130.64 206.56 125.72 215.19 120.65 224.18 115.84 233.48 111.27 242.81 106.43 252.47 101.76 262.4 97.26 272.37 92.45 282.61 87.79 293.09 83.33 303.59 78.62 314.31 74.19 325.22 70.13 336.15 66 347.26 62.39 358.5 59.42 369.75 56.64 381.13 54.66 392.61 53.61" stroke-dasharray="102 35" transform="rotate(0, 400, 400)" opacity="0.11"></path><path d="M391.87 66.74C402.89 66.1 413.75 66.42 424.43 67.66 435.12 69.28 445.62 71.77 455.94 75.05 466.26 78.58 476.4 82.79 486.34 87.57 496.31 92.42 506.11 97.71 515.72 103.36 525.39 108.91 534.9 114.73 544.26 120.77 553.69 126.6 563 132.63 572.16 138.81 581.44 144.78 590.59 150.94 599.61 157.28 608.74 163.46 617.73 169.87 626.55 176.53 635.44 183.08 644.13 189.94 652.54 197.11 660.96 204.24 669.03 211.72 676.67 219.54 684.18 227.37 691.16 235.56 697.52 244.11 703.61 252.68 708.97 261.61 713.53 270.87 717.7 280.16 721.01 289.77 723.41 299.68 725.4 309.61 726.51 319.83 726.73 330.29 726.67 340.77 725.83 351.5 724.29 362.43 722.71 373.36 720.6 384.5 718.05 395.82 715.75 407.13 713.24 418.35 710.62 429.44 708.43 440.52 706.2 451.48 703.93 462.28 702.13 473.08 700.26 483.73 698.28 494.18 696.65 504.64 694.8 514.9 692.67 524.96 690.71 535 688.33 544.83 685.5 554.41 682.64 563.97 679.21 573.27 675.2 582.28 671.03 591.26 666.22 599.94 660.77 608.29 655.12 616.58 648.84 624.53 641.96 632.09 634.88 639.6 627.24 646.7 619.09 653.38 610.79 660 602.04 666.18 592.88 671.9 583.63 677.56 574.03 682.76 564.14 687.49 554.2 692.17 544 696.4 533.59 700.14 523.17 703.87 512.57 707.14 501.82 709.93 491.07 712.75 480.18 715.12 469.19 717.01 458.21 718.96 447.13 720.46 435.98 721.48 424.83 722.58 413.61 723.2 402.33 723.33 391.05 723.53 379.98 723.22 369.14 722.41 358.29 721.64 347.66 720.35 337.26 718.56 326.84 716.77 316.65 714.45 306.7 711.62 296.73 708.76 286.98 705.36 277.49 701.45 267.95 697.49 258.65 693 249.61 688.02 240.51 682.97 231.66 677.43 223.06 671.42 214.41 665.36 206.01 658.84 197.88 651.91 189.7 644.94 181.78 637.57 174.16 629.83 166.49 622.08 159.12 613.97 152.08 605.55 145.01 597.13 138.29 588.41 131.95 579.41 125.61 570.43 119.66 561.18 114.16 551.69 108.68 542.22 103.67 532.52 99.15 522.59 94.69 512.69 90.74 502.56 87.34 492.24 84.02 481.94 81.25 471.43 79.07 460.74 76.97 450.06 75.45 439.19 74.55 428.16 73.71 417.13 73.47 405.93 73.85 394.59 74.27 383.24 75.28 372.02 76.83 360.96 78.39 349.89 80.48 338.99 83.05 328.27 85.59 317.56 88.6 307.05 92.04 296.79 95.42 286.54 99.22 276.55 103.41 266.85 107.52 257.2 112.02 247.86 116.88 238.88 121.66 229.96 126.81 221.42 132.32 213.28 137.76 205.22 143.56 197.57 149.71 190.37 155.82 183.23 162.29 176.53 169.11 170.26 175.92 164.02 183.09 158.18 190.6 152.73 198.12 147.23 205.99 142.05 214.19 137.18 222.42 132.16 230.98 127.37 239.85 122.8 248.74 117.99 257.94 113.34 267.41 108.86 276.9 104.1 286.67 99.52 296.66 95.16 306.68 90.59 316.92 86.31 327.34 82.4 337.78 78.46 348.4 75.03 359.17 72.22 369.94 69.59 380.85 67.73 391.86 66.74" stroke-dasharray="99 98" transform="rotate(0, 400, 400)" opacity="0.85"></path><path d="M391.52 79.87C402.09 79.26 412.53 79.55 422.81 80.71 433.09 82.2 443.23 84.52 453.2 87.6 463.18 90.91 473 94.87 482.66 99.41 492.35 104.01 501.89 109.08 511.26 114.51 520.7 119.87 529.99 125.53 539.14 131.41 548.37 137.13 557.47 143.06 566.44 149.15 575.5 155.05 584.43 161.14 593.22 167.41 602.1 173.51 610.81 179.84 619.33 186.39 627.9 192.82 636.24 199.53 644.27 206.51 652.28 213.44 659.92 220.68 667.12 228.23 674.17 235.77 680.7 243.64 686.6 251.83 692.25 260.04 697.19 268.57 701.37 277.42 705.19 286.28 708.21 295.45 710.37 304.91 712.18 314.38 713.16 324.13 713.33 334.12 713.26 344.13 712.47 354.38 711.02 364.83 709.54 375.29 707.57 385.95 705.16 396.79 702.98 407.63 700.59 418.39 698.06 429.03 695.92 439.67 693.7 450.19 691.43 460.56 689.57 470.93 687.64 481.16 685.59 491.2 683.88 501.24 681.96 511.1 679.78 520.76 677.79 530.4 675.42 539.83 672.64 549.01 669.88 558.17 666.6 567.08 662.8 575.71 658.89 584.3 654.39 592.59 649.32 600.56 644.07 608.48 638.23 616.06 631.84 623.26 625.27 630.41 618.16 637.18 610.56 643.53 602.82 649.82 594.63 655.7 586.04 661.13 577.35 666.52 568.3 671.47 558.95 675.96 549.55 680.42 539.87 684.44 529.97 688 520.05 691.55 509.93 694.67 499.65 697.33 489.36 700.03 478.93 702.29 468.39 704.1 457.84 705.98 447.19 707.41 436.46 708.4 425.73 709.46 414.93 710.07 404.06 710.2 393.19 710.41 382.52 710.12 372.06 709.36 361.59 708.65 351.33 707.43 341.28 705.74 331.22 704.05 321.37 701.85 311.75 699.17 302.11 696.46 292.67 693.23 283.48 689.52 274.24 685.75 265.23 681.49 256.46 676.75 247.64 671.94 239.05 666.66 230.7 660.94 222.31 655.15 214.16 648.93 206.27 642.3 198.32 635.63 190.64 628.57 183.25 621.15 175.82 613.71 168.68 605.92 161.86 597.83 155.02 589.73 148.52 581.33 142.4 572.66 136.27 564 130.54 555.08 125.23 545.93 119.96 536.79 115.14 527.41 110.79 517.84 106.51 508.27 102.72 498.5 99.46 488.54 96.28 478.59 93.64 468.46 91.56 458.15 89.57 447.86 88.14 437.39 87.3 426.77 86.53 416.16 86.33 405.39 86.73 394.5 87.18 383.61 88.19 372.86 89.72 362.26 91.26 351.66 93.31 341.23 95.82 331 98.3 320.78 101.23 310.77 104.58 301 107.87 291.25 111.55 281.76 115.62 272.56 119.6 263.41 123.96 254.56 128.66 246.06 133.29 237.61 138.26 229.51 143.57 221.81 148.81 214.16 154.4 206.9 160.31 200.05 166.18 193.24 172.39 186.82 178.93 180.81 185.44 174.78 192.3 169.12 199.48 163.81 206.66 158.42 214.17 153.33 221.99 148.51 229.83 143.53 237.98 138.77 246.43 134.22 254.89 129.44 263.65 124.83 272.67 120.39 281.71 115.72 291 111.23 300.53 106.98 310.07 102.55 319.84 98.43 329.79 94.69 339.75 90.94 349.9 87.68 360.19 85.03 370.5 82.55 380.94 80.8 391.51 79.87" stroke-dasharray="90 100" transform="rotate(0, 400, 400)" opacity="0.27"></path><path d="M391.58 93C401.71 92.42 411.73 92.68 421.62 93.75 431.51 95.13 441.28 97.29 450.91 100.17 460.55 103.26 470.06 106.99 479.42 111.28 488.82 115.64 498.09 120.46 507.21 125.67 516.39 130.83 525.44 136.29 534.36 142 543.35 147.58 552.21 153.38 560.94 159.36 569.75 165.17 578.42 171.17 586.94 177.34 595.51 183.37 603.91 189.59 612.1 196.02 620.3 202.34 628.25 208.91 635.88 215.71 643.46 222.46 650.66 229.48 657.4 236.78 664 244.06 670.06 251.63 675.53 259.5 680.74 267.37 685.29 275.54 689.1 283.99 692.6 292.46 695.34 301.21 697.29 310.24 698.93 319.27 699.81 328.57 699.93 338.11 699.85 347.65 699.12 357.43 697.76 367.41 696.39 377.4 694.54 387.59 692.28 397.95 690.22 408.32 687.94 418.61 685.5 428.79 683.41 438.97 681.21 449.04 678.95 458.98 677.06 468.91 675.07 478.7 672.97 488.32 671.18 497.93 669.2 507.37 666.98 516.61 664.95 525.84 662.58 534.85 659.85 543.63 657.16 552.38 654.01 560.88 650.39 569.11 646.7 577.3 642.48 585.21 637.73 592.79 632.85 600.32 627.42 607.53 621.47 614.37 615.37 621.16 608.77 627.59 601.69 633.61 594.49 639.59 586.84 645.16 578.8 650.32 570.66 655.43 562.17 660.13 553.37 664.39 544.5 668.63 535.36 672.44 525.98 675.83 516.57 679.21 506.95 682.18 497.16 684.72 487.36 687.3 477.39 689.46 467.31 691.19 457.22 692.99 447.01 694.37 436.72 695.31 426.42 696.33 416.04 696.93 405.59 697.07 395.14 697.28 384.87 697.02 374.8 696.31 364.72 695.64 354.82 694.5 345.13 692.9 335.43 691.31 325.92 689.24 316.62 686.69 307.3 684.13 298.19 681.08 289.29 677.56 280.35 673.99 271.63 669.94 263.13 665.44 254.59 660.88 246.27 655.87 238.18 650.43 230.05 644.92 222.15 639 214.51 632.68 206.82 626.32 199.38 619.58 192.23 612.49 185.04 605.37 178.14 597.92 171.55 590.16 164.95 582.39 158.69 574.33 152.78 566.01 146.89 557.68 141.37 549.11 136.27 540.31 131.21 531.51 126.58 522.49 122.41 513.27 118.31 504.06 114.69 494.65 111.58 485.07 108.55 475.49 106.03 465.74 104.07 455.83 102.18 445.93 100.83 435.87 100.06 425.68 99.35 415.49 99.19 405.17 99.62 394.74 100.08 384.31 101.09 374.02 102.6 363.89 104.12 353.77 106.12 343.82 108.57 334.07 111 324.34 113.85 314.81 117.1 305.53 120.29 296.27 123.87 287.27 127.81 278.55 131.67 269.87 135.89 261.49 140.43 253.44 144.9 245.43 149.71 237.76 154.83 230.46 159.88 223.19 165.26 216.28 170.95 209.75 176.58 203.23 182.54 197.07 188.81 191.27 195.05 185.45 201.6 179.94 208.47 174.75 215.32 169.47 222.48 164.45 229.94 159.69 237.41 154.77 245.17 150.05 253.21 145.53 261.26 140.8 269.6 136.24 278.18 131.87 286.78 127.29 295.63 122.91 304.7 118.78 313.78 114.52 323.08 110.56 332.58 107 342.07 103.43 351.76 100.35 361.6 97.86 371.44 95.52 381.44 93.87 391.57 93" stroke-dasharray="28 122" transform="rotate(0, 400, 400)" opacity="0.49"></path><path d="M392.04 106.13C401.74 105.58 411.35 105.81 420.86 106.81 430.36 108.08 439.76 110.08 449.05 112.76 458.34 115.65 467.53 119.15 476.59 123.18 485.68 127.3 494.66 131.88 503.52 136.84 512.41 141.78 521.2 147.03 529.85 152.55 538.57 157.97 547.16 163.61 555.62 169.45 564.13 175.14 572.5 181.03 580.7 187.09 588.93 193.01 596.98 199.13 604.79 205.43 612.6 211.63 620.13 218.05 627.34 224.69 634.47 231.26 641.22 238.08 647.51 245.15 653.65 252.18 659.26 259.48 664.3 267.05 669.1 274.6 673.27 282.43 676.74 290.52 679.94 298.62 682.43 306.98 684.18 315.59 685.67 324.21 686.45 333.07 686.54 342.16 686.46 351.26 685.77 360.58 684.51 370.1 683.24 379.63 681.52 389.34 679.39 399.23 677.46 409.12 675.28 418.94 672.94 428.66 670.9 438.38 668.75 448 666.5 457.48 664.59 466.96 662.56 476.31 660.42 485.49 658.57 494.67 656.53 503.67 654.28 512.48 652.2 521.28 649.83 529.87 647.14 538.22 644.5 546.55 641.46 554.65 637.99 562.47 634.49 570.25 630.51 577.75 626.05 584.95 621.49 592.1 616.43 598.93 610.89 605.41 605.23 611.84 599.09 617.93 592.51 623.63 585.81 629.29 578.68 634.56 571.18 639.44 563.58 644.28 555.63 648.73 547.36 652.77 539.04 656.79 530.43 660.42 521.57 663.63 512.69 666.85 503.58 669.68 494.28 672.1 484.98 674.55 475.5 676.62 465.88 678.27 456.27 679.99 446.52 681.32 436.67 682.23 426.82 683.21 416.88 683.79 406.86 683.94 396.83 684.15 386.97 683.92 377.29 683.25 367.6 682.63 358.08 681.56 348.74 680.05 339.4 678.55 330.24 676.6 321.27 674.19 312.28 671.77 303.48 668.89 294.88 665.56 286.25 662.19 277.82 658.37 269.6 654.11 261.35 649.79 253.31 645.04 245.48 639.88 237.62 634.66 229.99 629.04 222.59 623.04 215.17 616.99 207.99 610.58 201.08 603.83 194.15 597.04 187.5 589.93 181.15 582.53 174.81 575.1 168.78 567.4 163.1 559.43 157.45 551.46 152.16 543.24 147.27 534.81 142.43 526.37 138 517.71 134.02 508.87 130.11 500.03 126.66 491 123.7 481.81 120.82 472.62 118.43 463.26 116.57 453.76 114.79 444.27 113.54 434.63 112.82 424.88 112.17 415.12 112.06 405.25 112.5 395.28 112.98 385.31 113.98 375.49 115.47 365.84 116.96 356.19 118.92 346.72 121.3 337.45 123.66 328.19 126.43 319.15 129.59 310.35 132.69 301.56 136.16 293.03 139.97 284.78 143.71 276.55 147.79 268.61 152.18 260.98 156.5 253.39 161.14 246.11 166.08 239.17 170.95 232.25 176.12 225.66 181.59 219.41 187.01 213.16 192.73 207.23 198.74 201.63 204.71 195.98 210.98 190.62 217.54 185.54 224.08 180.36 230.92 175.42 238.03 170.72 245.14 165.86 252.53 161.19 260.19 156.72 267.84 152.06 275.77 147.58 283.94 143.29 292.11 138.83 300.53 134.58 309.16 130.59 317.8 126.49 326.65 122.71 335.7 119.32 344.75 115.93 353.98 113.03 363.38 110.68 372.78 108.49 382.34 106.95 392.03 106.13" stroke-dasharray="67 48" transform="rotate(0, 400, 400)" opacity="0.34"></path><path d="M392.89 119.26C402.17 118.74 411.37 118.95 420.49 119.87 429.61 121.03 438.64 122.89 447.58 125.39 456.52 128.07 465.38 131.33 474.12 135.12 482.89 139 491.56 143.32 500.11 148.03 508.7 152.74 517.19 157.77 525.55 163.07 533.96 168.3 542.24 173.77 550.38 179.44 558.56 184.99 566.59 190.74 574.44 196.66 582.3 202.46 589.96 208.45 597.37 214.62 604.76 220.69 611.86 226.96 618.62 233.43 625.3 239.82 631.59 246.45 637.43 253.29 643.11 260.09 648.3 267.14 652.92 274.42 657.33 281.68 661.13 289.19 664.29 296.94 667.2 304.68 669.46 312.67 671.04 320.89 672.39 329.11 673.09 337.56 673.16 346.22 673.08 354.89 672.44 363.76 671.27 372.82 670.1 381.89 668.5 391.14 666.51 400.55 664.69 409.97 662.62 419.31 660.38 428.57 658.41 437.82 656.29 446.97 654.07 456.01 652.15 465.03 650.11 473.92 647.94 482.66 646.03 491.38 643.95 499.95 641.66 508.32 639.56 516.67 637.18 524.83 634.51 532.76 631.92 540.66 628.96 548.33 625.63 555.74 622.29 563.11 618.51 570.22 614.31 577.02 610.04 583.78 605.31 590.24 600.14 596.36 594.88 602.44 589.17 608.18 583.04 613.57 576.81 618.91 570.18 623.9 563.19 628.51 556.11 633.09 548.68 637.29 540.94 641.11 533.15 644.93 525.07 648.36 516.74 651.41 508.37 654.47 499.78 657.16 490.99 659.46 482.19 661.8 473.2 663.77 464.07 665.35 454.93 667 445.65 668.27 436.26 669.15 426.87 670.1 417.37 670.66 407.79 670.8 398.2 671.02 388.75 670.81 379.47 670.19 370.18 669.61 361.04 668.61 352.07 667.19 343.09 665.78 334.28 663.94 325.65 661.67 316.99 659.39 308.52 656.67 300.23 653.54 291.92 650.36 283.79 646.75 275.86 642.73 267.9 638.66 260.14 634.17 252.59 629.3 245.02 624.37 237.66 619.05 230.53 613.37 223.38 607.64 216.46 601.56 209.81 595.15 203.15 588.71 196.76 581.95 190.67 574.91 184.58 567.84 178.81 560.5 173.37 552.91 167.96 545.3 162.91 537.46 158.24 529.4 153.62 521.34 149.41 513.06 145.62 504.61 141.9 496.15 138.62 487.52 135.82 478.73 133.09 469.94 130.84 460.99 129.09 451.92 127.42 442.84 126.25 433.63 125.59 424.32 125.01 415.01 124.93 405.59 125.38 396.09 125.88 386.59 126.87 377.24 128.32 368.06 129.79 358.89 131.69 349.89 134.01 341.09 136.3 332.31 138.99 323.73 142.05 315.39 145.05 307.07 148.41 298.98 152.09 291.17 155.71 283.37 159.66 275.85 163.9 268.62 168.07 261.41 172.55 254.49 177.31 247.89 182 241.29 186.98 234.99 192.24 229 197.44 222.99 202.93 217.27 208.69 211.84 214.41 206.36 220.42 201.13 226.69 196.16 232.93 191.09 239.45 186.23 246.24 181.59 253.01 176.81 260.04 172.22 267.33 167.81 274.61 163.24 282.15 158.86 289.91 154.67 297.68 150.34 305.68 146.23 313.89 142.39 322.1 138.46 330.53 134.86 339.14 131.65 347.75 128.45 356.55 125.72 365.52 123.52 374.48 121.47 383.61 120.03 392.88 119.27" stroke-dasharray="24 52" transform="rotate(0, 400, 400)" opacity="0.93"></path><path d="M394.09 132.4C402.94 131.9 411.74 132.09 420.47 132.93 429.2 134 437.86 135.72 446.44 138.03 455.02 140.52 463.53 143.56 471.93 147.1 480.36 150.73 488.7 154.8 496.93 159.25 505.19 163.72 513.35 168.51 521.38 173.58 529.45 178.6 537.39 183.87 545.18 189.34 552.99 194.73 560.65 200.31 568.11 206.07 575.57 211.73 582.81 217.57 589.8 223.58 596.74 229.5 603.4 235.61 609.71 241.9 615.93 248.13 621.76 254.55 627.16 261.18 632.4 267.76 637.16 274.56 641.39 281.56 645.42 288.55 648.89 295.75 651.76 303.17 654.41 310.58 656.45 318.22 657.87 326.06 659.1 333.9 659.74 341.95 659.78 350.19 659.72 358.44 659.13 366.88 658.04 375.49 656.96 384.11 655.48 392.9 653.63 401.84 651.92 410.78 649.96 419.66 647.82 428.45 645.91 437.23 643.85 445.92 641.67 454.49 639.75 463.05 637.7 471.48 635.51 479.77 633.57 488.04 631.45 496.15 629.15 504.08 627.01 511.99 624.63 519.7 621.99 527.2 619.43 534.67 616.55 541.92 613.33 548.91 610.12 555.87 606.53 562.57 602.55 568.99 598.53 575.36 594.1 581.45 589.26 587.21 584.35 592.94 579.04 598.36 573.33 603.43 567.55 608.47 561.38 613.17 554.86 617.51 548.27 621.83 541.35 625.81 534.13 629.42 526.85 633.02 519.28 636.28 511.47 639.16 503.62 642.07 495.54 644.62 487.26 646.81 478.96 649.04 470.47 650.92 461.83 652.43 453.17 654 444.37 655.22 435.45 656.07 426.52 656.98 417.48 657.52 408.34 657.67 399.2 657.89 390.18 657.7 381.3 657.12 372.42 656.59 363.67 655.65 355.07 654.31 346.47 652.99 338.02 651.26 329.73 649.13 321.42 646.98 313.28 644.43 305.31 641.47 297.33 638.49 289.51 635.09 281.88 631.31 274.23 627.48 266.77 623.26 259.51 618.66 252.23 614.02 245.16 609.01 238.31 603.65 231.45 598.24 224.82 592.5 218.44 586.44 212.06 580.35 205.94 573.95 200.11 567.28 194.29 560.58 188.78 553.61 183.59 546.4 178.44 539.18 173.63 531.72 169.19 524.06 164.8 516.38 160.8 508.51 157.21 500.46 153.69 492.4 150.59 484.17 147.95 475.8 145.37 467.42 143.26 458.9 141.62 450.25 140.05 441.6 138.97 432.84 138.37 423.97 137.85 415.11 137.81 406.15 138.27 397.12 138.77 388.1 139.75 379.22 141.17 370.51 142.6 361.8 144.45 353.27 146.7 344.94 148.92 336.61 151.52 328.49 154.47 320.6 157.38 312.71 160.63 305.06 164.18 297.66 167.68 290.28 171.49 283.14 175.58 276.28 179.61 269.43 183.92 262.85 188.5 256.55 193.02 250.25 197.82 244.21 202.87 238.46 207.87 232.68 213.14 227.15 218.66 221.89 224.14 216.56 229.88 211.47 235.87 206.6 241.84 201.64 248.06 196.88 254.53 192.32 260.97 187.63 267.67 183.13 274.61 178.81 281.53 174.35 288.69 170.08 296.08 166.01 303.45 161.83 311.06 157.87 318.86 154.2 326.66 150.45 334.67 147.03 342.87 144 351.05 140.98 359.43 138.42 367.97 136.37 376.51 134.45 385.22 133.1 394.08 132.4" stroke-dasharray="120 130" transform="rotate(0, 400, 400)" opacity="0.12"></path><path d="M395.56 145.53C404.01 145.06 412.4 145.22 420.74 146.01 429.08 146.98 437.35 148.56 445.56 150.7 453.77 153 461.91 155.82 469.96 159.11 478.03 162.51 486.01 166.32 493.89 170.51 501.79 174.72 509.59 179.26 517.27 184.09 524.96 188.88 532.52 193.92 539.93 199.18 547.35 204.38 554.6 209.77 561.64 215.34 568.68 220.83 575.49 226.5 582.03 232.33 588.53 238.09 594.73 244.03 600.58 250.13 606.35 256.17 611.73 262.39 616.69 268.79 621.51 275.15 625.87 281.71 629.72 288.44 633.4 295.16 636.55 302.07 639.15 309.18 641.56 316.27 643.41 323.56 644.69 331.03 645.8 338.51 646.38 346.17 646.42 354.01 646.36 361.85 645.82 369.86 644.83 378.04 643.84 386.21 642.47 394.55 640.74 403.02 639.14 411.49 637.3 419.9 635.26 428.22 633.42 436.54 631.42 444.76 629.29 452.86 627.38 460.96 625.34 468.93 623.15 476.76 621.19 484.57 619.05 492.23 616.73 499.71 614.58 507.17 612.2 514.45 609.58 521.51 607.05 528.55 604.23 535.38 601.11 541.95 598.02 548.5 594.58 554.81 590.81 560.83 587.01 566.83 582.83 572.55 578.3 577.96 573.71 583.35 568.75 588.44 563.43 593.2 558.05 597.94 552.32 602.36 546.25 606.45 540.12 610.53 533.68 614.27 526.94 617.68 520.16 621.09 513.09 624.16 505.78 626.89 498.44 629.65 490.87 632.07 483.09 634.15 475.29 636.27 467.3 638.06 459.14 639.51 450.98 641.01 442.66 642.17 434.21 642.98 425.76 643.86 417.18 644.39 408.49 644.54 399.81 644.76 391.22 644.59 382.76 644.05 374.29 643.55 365.94 642.67 357.73 641.42 349.52 640.18 341.43 638.56 333.5 636.56 325.55 634.55 317.76 632.15 310.12 629.38 302.47 626.58 294.98 623.39 287.67 619.84 280.35 616.25 273.19 612.29 266.24 607.98 259.27 603.62 252.5 598.91 245.95 593.87 239.39 588.79 233.05 583.38 226.96 577.68 220.87 571.94 215.04 565.91 209.48 559.61 203.95 553.29 198.71 546.7 193.78 539.89 188.89 533.05 184.33 525.99 180.13 518.74 175.98 511.46 172.19 504 168.81 496.36 165.49 488.72 162.57 480.91 160.08 472.96 157.66 465.01 155.68 456.92 154.16 448.72 152.7 440.51 151.69 432.19 151.16 423.78 150.69 415.38 150.68 406.88 151.15 398.33 151.66 389.77 152.62 381.36 154 373.12 155.39 364.87 157.19 356.8 159.36 348.92 161.51 341.04 164.02 333.36 166.87 325.89 169.68 318.44 172.81 311.19 176.23 304.19 179.61 297.19 183.28 290.42 187.22 283.9 191.1 277.39 195.25 271.12 199.66 265.1 204.01 259.08 208.62 253.29 213.47 247.76 218.27 242.19 223.32 236.85 228.61 231.74 233.85 226.57 239.35 221.61 245.07 216.86 250.77 212.02 256.7 207.37 262.87 202.91 269.01 198.33 275.38 193.93 281.98 189.72 288.56 185.39 295.37 181.25 302.39 177.32 309.39 173.3 316.61 169.51 324.03 166.01 331.43 162.45 339.04 159.22 346.83 156.36 354.61 153.53 362.57 151.14 370.7 149.23 378.82 147.43 387.11 146.18 395.55 145.53" stroke-dasharray="130 102" transform="rotate(0, 400, 400)" opacity="0.72"></path><path d="M397.26 158.66C405.28 158.22 413.28 158.37 421.21 159.08 429.15 159.97 437.04 161.42 444.85 163.39 452.68 165.51 460.44 168.12 468.11 171.17 475.8 174.32 483.41 177.88 490.91 181.81 498.42 185.76 505.84 190.04 513.12 194.61 520.41 199.16 527.57 203.96 534.57 208.98 541.57 213.96 548.39 219.13 555 224.5 561.59 229.79 567.95 235.26 574.05 240.9 580.08 246.47 585.82 252.21 591.23 258.1 596.55 263.94 601.49 269.95 606.03 276.13 610.44 282.26 614.41 288.57 617.92 295.04 621.26 301.48 624.12 308.11 626.47 314.9 628.66 321.68 630.33 328.64 631.48 335.76 632.5 342.87 633.03 350.16 633.06 357.6 633.02 365.04 632.53 372.64 631.62 380.39 630.72 388.13 629.46 396.02 627.86 404.03 626.37 412.04 624.63 419.98 622.69 427.83 620.94 435.68 619.01 443.44 616.92 451.08 615.05 458.71 613.02 466.23 610.85 473.59 608.88 480.95 606.73 488.15 604.42 495.19 602.26 502.2 599.88 509.04 597.29 515.67 594.79 522.28 592.03 528.68 589 534.85 586.01 540.99 582.71 546.9 579.11 552.55 575.5 558.17 571.56 563.53 567.3 568.61 563 573.66 558.36 578.43 553.39 582.89 548.38 587.34 543.04 591.5 537.4 595.34 531.7 599.17 525.71 602.7 519.43 605.9 513.12 609.12 506.54 612.02 499.72 614.61 492.87 617.21 485.78 619.51 478.5 621.49 471.19 623.5 463.7 625.2 456.03 626.58 448.35 628.01 440.52 629.13 432.54 629.91 424.57 630.75 416.45 631.25 408.23 631.41 400.01 631.62 391.87 631.47 383.83 630.97 375.79 630.51 367.85 629.69 360.04 628.52 352.22 627.36 344.52 625.84 336.95 623.96 329.38 622.09 321.95 619.84 314.66 617.25 307.36 614.63 300.22 611.65 293.24 608.33 286.25 604.97 279.43 601.26 272.79 597.23 266.15 593.15 259.69 588.74 253.45 584.02 247.21 579.26 241.18 574.2 235.39 568.85 229.61 563.46 224.07 557.8 218.8 551.89 213.56 545.94 208.6 539.75 203.94 533.33 199.32 526.9 195.02 520.24 191.06 513.4 187.15 506.54 183.59 499.49 180.41 492.28 177.29 485.06 174.56 477.69 172.23 470.18 169.97 462.66 168.12 455.01 166.71 447.25 165.35 439.49 164.43 431.63 163.96 423.68 163.54 415.73 163.56 407.71 164.04 399.62 164.55 391.54 165.49 383.6 166.83 375.81 168.18 368.02 169.91 360.4 172 352.96 174.08 345.52 176.49 338.26 179.23 331.21 181.93 324.15 184.94 317.3 188.24 310.67 191.49 304.04 195.01 297.62 198.8 291.43 202.53 285.23 206.53 279.25 210.76 273.5 214.94 267.74 219.36 262.19 224.02 256.86 228.62 251.5 233.46 246.34 238.52 241.4 243.54 236.39 248.79 231.57 254.26 226.94 259.69 222.24 265.35 217.7 271.23 213.36 277.07 208.91 283.14 204.64 289.41 200.55 295.66 196.37 302.13 192.38 308.79 188.61 315.44 184.76 322.29 181.16 329.33 177.83 336.36 174.47 343.57 171.42 350.96 168.74 358.35 166.1 365.9 163.86 373.62 162.09 381.34 160.42 389.22 159.27 397.25 158.66" stroke-dasharray="23 1" transform="rotate(0, 400, 400)" opacity="0.25"></path><path d="M399.08 171.79C406.69 171.38 414.27 171.51 421.8 172.16 429.33 172.97 436.82 174.3 444.24 176.11 451.66 178.05 459.02 180.45 466.3 183.28 473.59 186.19 480.79 189.49 487.89 193.15 495 196.84 502 200.86 508.87 205.15 515.74 209.44 522.47 213.99 529.04 218.75 535.6 223.49 541.97 228.43 548.14 233.56 554.27 238.63 560.18 243.88 565.82 249.3 571.39 254.65 576.68 260.18 581.65 265.85 586.52 271.47 591.05 277.25 595.18 283.18 599.2 289.08 602.81 295.13 605.99 301.33 609.02 307.51 611.61 313.84 613.73 320.32 615.71 326.79 617.23 333.42 618.27 340.19 619.21 346.95 619.69 353.87 619.72 360.92 619.69 367.97 619.26 375.17 618.43 382.49 617.61 389.8 616.46 397.25 614.97 404.8 613.59 412.35 611.96 419.84 610.13 427.23 608.45 434.62 606.6 441.91 604.58 449.09 602.74 456.26 600.75 463.31 598.61 470.22 596.64 477.13 594.51 483.88 592.2 490.47 590.04 497.04 587.68 503.44 585.12 509.65 582.65 515.83 579.95 521.82 577 527.59 574.11 533.33 570.94 538.85 567.49 544.13 564.06 549.38 560.33 554.39 556.3 559.14 552.26 563.86 547.92 568.33 543.27 572.51 538.6 576.68 533.63 580.57 528.37 584.17 523.07 587.77 517.5 591.08 511.66 594.1 505.79 597.13 499.67 599.87 493.31 602.31 486.93 604.77 480.33 606.94 473.53 608.82 466.71 610.73 459.69 612.35 452.51 613.66 445.32 615.02 437.96 616.08 430.47 616.83 422.97 617.63 415.33 618.12 407.57 618.28 399.82 618.49 392.13 618.35 384.53 617.89 376.93 617.47 369.41 616.7 362 615.6 354.6 614.52 347.29 613.1 340.11 611.35 332.93 609.6 325.86 607.5 318.94 605.08 312.01 602.64 305.22 599.86 298.59 596.76 291.96 593.63 285.48 590.17 279.18 586.41 272.88 582.61 266.76 578.5 260.84 574.09 254.93 569.66 249.22 564.93 243.74 559.93 238.28 554.9 233.05 549.61 228.08 544.08 223.14 538.51 218.47 532.71 214.09 526.7 209.74 520.67 205.7 514.43 201.99 508 198.32 501.56 194.99 494.94 192.02 488.17 189.11 481.38 186.56 474.44 184.39 467.38 182.29 460.3 180.58 453.1 179.27 445.8 178.02 438.49 177.18 431.09 176.76 423.6 176.4 416.12 176.44 408.56 176.92 400.94 177.43 393.33 178.35 385.85 179.64 378.51 180.94 371.18 182.61 363.99 184.62 356.98 186.61 349.96 188.93 343.12 191.56 336.46 194.15 329.8 197.04 323.32 200.2 317.04 203.31 310.76 206.7 304.67 210.33 298.79 213.91 292.89 217.74 287.2 221.79 281.71 225.8 276.19 230.04 270.87 234.49 265.75 238.9 260.59 243.53 255.62 248.37 250.84 253.17 246 258.18 241.33 263.4 236.85 268.58 232.29 273.97 227.89 279.56 223.68 285.12 219.38 290.89 215.26 296.85 211.32 302.79 207.3 308.92 203.48 315.24 199.88 321.55 196.22 328.04 192.8 334.71 189.66 341.37 186.5 348.2 183.65 355.21 181.15 362.2 178.68 369.36 176.61 376.68 174.97 383.99 173.42 391.46 172.35 399.07 171.79" stroke-dasharray="108 21" transform="rotate(0, 400, 400)" opacity="0.95"></path><path d="M400.95 184.92C408.14 184.54 415.31 184.65 422.42 185.25 429.54 185.98 436.61 187.19 443.61 188.84 450.62 190.62 457.57 192.82 464.43 195.42 471.3 198.1 478.08 201.16 484.76 204.54 491.44 207.98 498.01 211.72 504.45 215.73 510.88 219.75 517.17 224.03 523.29 228.52 529.39 233 535.31 237.68 541.02 242.55 546.69 247.38 552.14 252.39 557.32 257.55 562.45 262.68 567.3 267.96 571.83 273.39 576.28 278.77 580.4 284.31 584.15 289.98 587.8 295.62 591.07 301.4 593.94 307.32 596.69 313.22 599.03 319.26 600.94 325.43 602.74 331.59 604.11 337.88 605.05 344.3 605.91 350.72 606.35 357.27 606.39 363.94 606.38 370.6 606 377.39 605.24 384.29 604.51 391.19 603.46 398.19 602.09 405.3 600.81 412.4 599.29 419.42 597.57 426.36 595.97 433.29 594.2 440.13 592.26 446.85 590.47 453.57 588.52 460.16 586.42 466.63 584.47 473.08 582.36 479.39 580.09 485.54 577.94 491.67 575.61 497.65 573.08 503.43 570.65 509.2 568.01 514.78 565.15 520.16 562.34 525.51 559.28 530.66 555.99 535.57 550.94 542.81 539.52 556.06 533.13 562.04 528.76 565.94 524.12 569.58 519.22 572.95 514.3 576.33 509.11 579.44 503.69 582.27 498.24 585.12 492.55 587.69 486.64 589.99 480.71 592.32 474.57 594.37 468.23 596.14 461.88 597.95 455.34 599.49 448.63 600.73 441.91 602.03 435.04 603.04 428.02 603.75 420.99 604.52 413.83 604.99 406.55 605.14 399.26 605.35 392.03 605.23 384.88 604.8 377.72 604.41 370.64 603.7 363.65 602.68 356.67 601.67 349.77 600.35 342.99 598.71 336.21 597.08 329.54 595.13 322.99 592.87 316.45 590.61 310.03 588.02 303.76 585.14 297.5 582.23 291.38 579.02 285.43 575.52 279.49 571.99 273.72 568.17 268.14 564.08 262.57 559.96 257.2 555.56 252.04 550.92 246.91 546.24 242 541.31 237.34 536.16 232.71 530.98 228.33 525.57 224.23 519.97 220.17 514.34 216.4 508.51 212.93 502.51 209.51 496.5 206.41 490.31 203.65 483.97 200.94 477.62 198.58 471.13 196.57 464.51 194.63 457.88 193.05 451.13 191.85 444.29 190.7 437.44 189.94 430.49 189.58 423.47 189.26 416.45 189.33 409.35 189.8 402.21 190.31 395.06 191.2 388.03 192.44 381.14 193.7 374.25 195.3 367.5 197.21 360.9 199.13 354.3 201.34 347.85 203.85 341.57 206.33 335.29 209.09 329.18 212.11 323.24 215.09 317.3 218.33 311.53 221.79 305.94 225.22 300.34 228.88 294.92 232.76 289.68 236.59 284.41 240.64 279.32 244.9 274.41 249.11 269.46 253.53 264.67 258.14 260.07 262.72 255.41 267.5 250.91 272.46 246.58 277.4 242.18 282.53 237.95 287.84 233.89 293.12 229.76 298.6 225.81 304.25 222.04 309.88 218.2 315.69 214.56 321.68 211.15 327.65 207.68 333.79 204.46 340.1 201.51 346.4 198.55 352.86 195.89 359.48 193.56 366.09 191.28 372.86 189.36 379.78 187.85 386.69 186.42 393.75 185.44 400.94 184.92" stroke-dasharray="86 135" transform="rotate(0, 400, 400)" opacity="0.59"></path><path d="M402.77 198.06C409.55 197.7 416.28 197.8 422.97 198.34 429.67 199 436.31 200.09 442.89 201.6 449.47 203.22 455.99 205.23 462.42 207.61 468.85 210.06 475.2 212.87 481.44 215.99 487.67 219.16 493.8 222.63 499.79 226.36 505.76 230.1 511.6 234.09 517.26 238.3 522.9 242.51 528.36 246.91 533.62 251.5 538.83 256.07 543.82 260.81 548.56 265.7 553.25 270.57 557.66 275.59 561.78 280.75 565.82 285.87 569.55 291.14 572.95 296.54 576.25 301.91 579.2 307.41 581.79 313.03 584.27 318.64 586.38 324.37 588.1 330.22 589.73 336.06 590.98 342.02 591.83 348.09 592.62 354.16 593.04 360.34 593.07 366.62 593.08 372.9 592.75 379.29 592.07 385.77 591.42 392.25 590.46 398.83 589.21 405.48 588.03 412.14 586.61 418.72 585 425.2 583.49 431.68 581.8 438.07 579.94 444.34 578.22 450.61 576.33 456.76 574.29 462.78 572.37 468.79 570.3 474.66 568.07 480.38 565.95 486.09 563.65 491.64 561.18 497.02 557.51 504.98 549.25 519.93 544.62 526.88 539.8 533.61 529 545.94 523.01 551.51 516.76 556.85 503.03 566.31 495.58 570.42 490.53 573.09 485.25 575.51 479.76 577.67 474.26 579.86 468.56 581.8 462.67 583.47 456.77 585.18 450.69 586.63 444.45 587.81 438.21 589.04 431.8 590 425.25 590.68 418.7 591.41 412.01 591.86 405.21 592.01 398.4 592.21 391.63 592.11 384.93 591.71 378.23 591.35 371.59 590.69 365.03 589.74 358.48 588.81 352.01 587.58 345.63 586.06 339.27 584.54 333 582.73 326.85 580.64 320.7 578.53 314.68 576.14 308.79 573.47 302.91 570.78 297.16 567.8 291.58 564.56 286.01 561.3 280.6 557.76 275.37 553.97 270.16 550.16 265.13 546.09 260.31 541.79 255.52 537.46 250.94 532.9 246.59 528.12 242.27 523.32 238.2 518.31 234.38 513.1 230.61 507.88 227.11 502.47 223.89 496.89 220.73 491.3 217.86 485.54 215.3 479.64 212.8 473.73 210.62 467.68 208.77 461.51 206.98 455.34 205.53 449.05 204.44 442.66 203.4 436.27 202.71 429.78 202.4 423.22 202.13 416.66 202.22 410.03 202.69 403.34 203.19 396.66 204.04 390.08 205.23 383.63 206.44 377.17 207.96 370.84 209.79 364.65 211.61 358.46 213.72 352.4 216.1 346.49 218.47 340.58 221.09 334.82 223.96 329.22 226.8 323.6 229.89 318.15 233.19 312.85 236.45 307.54 239.94 302.38 243.63 297.39 247.29 292.38 251.15 287.52 255.2 282.82 259.21 278.09 263.42 273.51 267.81 269.09 272.16 264.62 276.7 260.31 281.42 256.15 286.11 251.94 290.97 247.89 296.01 244.01 301.02 240.07 306.21 236.29 311.56 232.71 316.89 229.07 322.38 225.63 328.04 222.41 333.68 219.15 339.48 216.14 345.43 213.38 351.38 210.62 357.47 208.15 363.71 206 369.94 203.89 376.32 202.12 382.84 200.74 389.34 199.43 395.99 198.52 402.76 198.06" stroke-dasharray="32 33" transform="rotate(0, 400, 400)" opacity="0.53"></path><path d="M404.46 211.19C410.81 210.85 417.11 210.94 423.37 211.44 429.63 212.02 435.84 213.01 441.98 214.39 448.12 215.84 454.2 217.67 460.18 219.84 466.17 222.08 472.07 224.64 477.86 227.5 483.64 230.41 489.3 233.6 494.83 237.04 500.35 240.5 505.73 244.2 510.93 248.12 521.27 255.94 530.87 264.55 539.53 273.78 547.98 282.92 555.4 292.67 561.58 302.89 565.89 310.57 572.73 326.49 575.23 334.72 577.28 343.04 579.54 360.18 579.78 368.98 579.81 374.87 579.52 380.86 578.91 386.93 578.33 393 577.47 399.14 576.32 405.36 575.24 411.57 573.93 417.7 572.43 423.74 571.01 429.78 569.41 435.72 567.65 441.55 565.99 447.37 564.17 453.09 562.2 458.67 559.32 466.97 552.94 482.86 549.42 490.41 547.09 495.38 544.58 500.18 541.89 504.8 536.68 514.02 530.64 522.5 523.8 530.13 517.02 537.76 509.35 544.55 500.84 550.41 494.34 554.71 480.29 562.18 472.76 565.35 465.03 568.32 448.66 573.1 440.05 574.9 434.26 576.06 428.32 576.96 422.24 577.61 416.16 578.3 409.94 578.73 403.61 578.88 397.28 579.08 390.98 578.98 384.74 578.62 378.49 578.29 372.31 577.68 366.19 576.79 360.08 575.93 354.04 574.79 348.09 573.38 342.15 571.98 336.3 570.31 330.56 568.37 324.82 566.42 319.2 564.21 313.7 561.74 308.22 559.26 302.86 556.52 297.66 553.53 287.29 547.5 277.54 540.46 268.58 532.54 259.7 524.54 251.64 515.68 244.56 506.08 241.08 501.26 237.85 496.26 234.89 491.11 231.97 485.94 229.33 480.61 226.98 475.15 224.69 469.68 222.68 464.07 221 458.35 219.36 452.62 218.04 446.78 217.05 440.85 216.11 434.92 215.5 428.89 215.23 422.79 215 416.69 215.11 410.51 215.57 404.29 216.06 398.06 216.88 391.93 218.02 385.9 219.16 379.88 220.61 373.96 222.34 368.17 224.06 362.38 226.06 356.7 228.32 351.16 230.56 345.62 233.05 340.2 235.76 334.92 238.46 329.64 241.38 324.49 244.51 319.48 247.61 314.46 250.92 309.58 254.42 304.85 261.32 295.3 269 286.3 277.35 277.91 285.57 269.36 294.5 261.37 304.05 254.04 308.78 250.3 313.68 246.73 318.73 243.35 323.76 239.93 328.94 236.69 334.27 233.68 339.58 230.64 345.04 227.83 350.64 225.27 356.23 222.72 361.96 220.44 367.82 218.46 373.68 216.52 379.66 214.9 385.77 213.64 391.88 212.44 398.11 211.61 404.45 211.19" stroke-dasharray="134 102" transform="rotate(0, 400, 400)" opacity="0.27"></path><path d="M405.93 224.32C417.75 223.79 429.42 224.79 440.81 227.19 452.2 229.88 463.29 233.91 473.96 239.07 484.59 244.41 494.75 250.77 504.27 257.98 513.69 265.22 522.4 273.22 530.23 281.82 537.86 290.37 544.53 299.5 550.07 309.08 555.37 318.6 559.49 328.6 562.34 338.96 564.96 349.28 566.36 360 566.5 371.03 566.59 382.04 565.56 393.37 563.44 404.92 561.53 416.47 558.78 427.69 555.36 438.48 552.3 449.27 548.59 459.61 544.3 469.4 540.35 479.17 535.74 488.38 530.51 496.9 525.49 505.42 519.73 513.25 513.26 520.3 506.86 527.36 499.67 533.65 491.74 539.09 483.81 544.58 475.11 549.26 465.72 553.03 456.3 556.9 446.2 559.92 435.52 561.99 424.82 564.2 413.56 565.49 401.84 565.75 390.13 566.16 378.53 565.49 367.2 563.84 355.87 562.26 344.82 559.65 334.17 556.07 323.55 552.49 313.35 547.91 303.71 542.43 294.12 536.9 285.12 530.44 276.86 523.18 268.68 515.85 261.27 507.71 254.78 498.9 248.42 490.03 243.02 480.5 238.7 470.45 234.55 460.37 231.5 449.78 229.69 438.82 228.03 427.85 227.58 416.53 228.46 404.98 229.43 393.44 231.61 382.21 234.86 371.42 238.12 360.62 242.38 350.23 247.51 340.34 252.57 330.42 258.48 320.96 265.1 312.03 271.62 303.03 278.87 294.51 286.75 286.56 294.51 278.47 302.93 270.92 311.91 264 320.81 256.95 330.31 250.55 340.32 244.96 350.28 239.32 360.78 234.58 371.74 230.94 382.68 227.43 394.11 225.16 405.92 224.32" stroke-dasharray="21 41" transform="rotate(0, 400, 400)" opacity="0.74"></path><path d="M407.12 237.45C418.06 236.96 428.83 237.85 439.31 240.01 449.78 242.42 459.96 246.04 469.7 250.71 479.41 255.53 488.65 261.32 497.27 267.91 505.8 274.54 513.65 281.91 520.66 289.85 527.53 297.77 533.5 306.25 538.44 315.16 543.18 324.03 546.88 333.33 549.42 342.98 551.81 352.59 553.09 362.57 553.24 372.8 553.36 383.02 552.47 393.52 550.55 404.19 548.82 414.87 546.28 425.23 543.09 435.16 540.18 445.1 536.65 454.61 532.55 463.6 528.74 472.59 524.31 481.05 519.3 488.88 514.49 496.71 509.01 503.92 502.9 510.41 496.88 516.92 490.15 522.73 482.78 527.77 475.42 532.86 467.37 537.2 458.72 540.71 450.04 544.32 440.75 547.14 430.93 549.08 421.1 551.15 410.75 552.36 399.99 552.62 389.22 553 378.55 552.4 368.12 550.88 357.71 549.43 347.54 547.02 337.74 543.74 327.98 540.46 318.61 536.28 309.77 531.26 300.98 526.21 292.74 520.32 285.18 513.69 277.71 507.01 270.96 499.58 265.05 491.53 259.27 483.44 254.36 474.73 250.45 465.53 246.69 456.3 243.95 446.6 242.34 436.53 240.86 426.46 240.49 416.04 241.34 405.39 242.27 394.74 244.33 384.36 247.37 374.35 250.42 364.34 254.4 354.68 259.2 345.45 263.95 336.19 269.48 327.34 275.69 318.97 281.81 310.52 288.61 302.52 295.99 295.04 303.28 287.46 311.18 280.39 319.58 273.92 327.92 267.35 336.8 261.42 346.13 256.26 355.43 251.08 365.21 246.75 375.4 243.44 385.57 240.26 396.17 238.2 407.11 237.45" stroke-dasharray="78 91" transform="rotate(0, 400, 400)" opacity="0.87"></path><path d="M407.96 250.58C418.01 250.13 427.86 250.92 437.43 252.85 446.99 254.99 456.24 258.22 465.07 262.41 473.86 266.74 482.19 271.96 489.93 277.92 497.59 283.94 504.61 290.65 510.86 297.92 516.99 305.18 522.3 312.97 526.69 321.17 530.92 329.35 534.22 337.94 536.5 346.84 538.66 355.72 539.84 364.92 540 374.34 540.15 383.76 539.38 393.42 537.67 403.23 536.11 413.04 533.78 422.53 530.82 431.63 528.09 440.73 524.75 449.43 520.88 457.65 517.24 465.87 513.02 473.6 508.27 480.76 503.68 487.93 498.5 494.53 492.77 500.48 487.12 506.46 480.85 511.8 474.01 516.44 467.2 521.13 459.79 525.15 451.83 528.4 443.88 531.75 435.37 534.37 426.4 536.18 417.41 538.11 407.96 539.24 398.13 539.49 388.3 539.85 378.56 539.3 369.05 537.9 359.54 536.58 350.27 534.38 341.35 531.38 332.45 528.4 323.93 524.59 315.89 520.02 307.9 515.45 300.42 510.1 293.58 504.08 286.81 498.02 280.71 491.29 275.39 483.98 270.17 476.65 265.75 468.74 262.25 460.37 258.88 451.98 256.43 443.15 255.01 433.96 253.7 424.77 253.41 415.25 254.22 405.49 255.11 395.73 257.03 386.19 259.85 376.97 262.69 367.74 266.39 358.81 270.84 350.26 275.25 341.68 280.4 333.45 286.17 325.66 291.88 317.81 298.21 310.36 305.07 303.39 311.87 296.35 319.22 289.79 327.03 283.8 334.79 277.75 343.03 272.3 351.69 267.58 360.31 262.86 369.36 258.94 378.76 255.96 388.15 253.09 397.91 251.25 407.96 250.58" stroke-dasharray="46 44" transform="rotate(0, 400, 400)" opacity="0.35"></path><path d="M408.42 263.72C417.56 263.3 426.5 264 435.15 265.71 443.79 267.59 452.12 270.45 460.04 274.17 467.92 278.01 475.37 282.67 482.26 288.02 489.08 293.42 495.31 299.47 500.84 306.04 506.27 312.63 510.98 319.7 514.85 327.17 518.61 334.63 521.55 342.47 523.58 350.6 525.53 358.71 526.61 367.12 526.78 375.73 526.96 384.33 526.3 393.14 524.79 402.08 523.39 411.01 521.27 419.66 518.56 427.93 516.03 436.2 512.91 444.11 509.28 451.57 505.84 459.04 501.86 466.07 497.4 472.57 493.08 479.1 488.22 485.11 482.87 490.53 477.59 495.99 471.78 500.87 465.48 505.12 459.21 509.43 452.41 513.11 445.14 516.11 437.88 519.2 430.14 521.61 421.99 523.29 413.83 525.07 405.26 526.12 396.36 526.35 387.46 526.69 378.65 526.19 370.05 524.93 361.46 523.73 353.09 521.73 345.04 519.01 337.01 516.31 329.33 512.86 322.1 508.73 314.92 504.61 308.2 499.79 302.07 494.36 296.01 488.91 290.55 482.85 285.8 476.26 281.14 469.66 277.21 462.53 274.1 454.97 271.1 447.41 268.94 439.42 267.7 431.11 266.56 422.79 266.33 414.15 267.11 405.27 267.95 396.39 269.72 387.69 272.32 379.26 274.93 370.83 278.33 362.64 282.42 354.78 286.49 346.9 291.23 339.33 296.54 332.15 301.81 324.92 307.66 318.05 313.99 311.64 320.27 305.17 327.05 299.15 334.24 293.67 341.4 288.16 348.99 283.21 356.94 278.94 364.86 274.68 373.17 271.16 381.77 268.5 390.37 265.94 399.27 264.3 408.42 263.72" stroke-dasharray="12 85" transform="rotate(0, 400, 400)" opacity="1.00"></path><path d="M408.46 276.85C416.69 276.48 424.71 277.08 432.45 278.58 440.17 280.22 447.59 282.72 454.62 286 461.62 289.37 468.2 293.48 474.28 298.22 480.3 303.01 485.78 308.39 490.63 314.26 495.41 320.15 499.54 326.5 502.94 333.21 506.26 339.92 508.86 346.99 510.66 354.32 512.41 361.65 513.4 369.24 513.59 377.01 513.79 384.78 513.23 392.74 511.9 400.8 510.67 408.87 508.77 416.66 506.3 424.12 503.98 431.58 501.11 438.7 497.76 445.42 494.55 452.16 490.85 458.49 486.7 464.36 482.67 470.25 478.15 475.68 473.21 480.59 468.33 485.53 462.99 489.97 457.22 493.83 451.48 497.74 445.29 501.1 438.71 503.85 432.13 506.66 425.14 508.87 417.8 510.41 410.45 512.03 402.75 512.99 394.77 513.22 386.79 513.53 378.9 513.09 371.21 511.95 363.53 510.86 356.05 509.06 348.87 506.61 341.72 504.19 334.88 501.09 328.45 497.4 322.07 493.7 316.11 489.39 310.68 484.54 305.31 479.67 300.49 474.26 296.3 468.38 292.19 462.48 288.73 456.11 286 449.35 283.37 442.59 281.48 435.43 280.41 427.97 279.43 420.51 279.26 412.74 279.99 404.75 280.78 396.75 282.4 388.89 284.76 381.26 287.14 373.62 290.23 366.2 293.95 359.06 297.66 351.9 301.98 345.01 306.82 338.46 311.63 331.89 316.96 325.64 322.73 319.81 328.47 313.95 334.65 308.5 341.21 303.55 347.74 298.58 354.65 294.14 361.88 290.33 369.09 286.54 376.62 283.41 384.41 281.06 392.19 278.8 400.24 277.35 408.46 276.85" stroke-dasharray="135 35" transform="rotate(0, 400, 400)" opacity="0.32"></path><path d="M408.1 289.98C415.41 289.65 422.51 290.17 429.34 291.47 436.15 292.88 442.68 295.04 448.84 297.89 454.98 300.81 460.73 304.39 466.02 308.53 471.28 312.71 476.05 317.44 480.26 322.6 484.43 327.78 488.02 333.39 490.98 339.33 493.89 345.28 496.17 351.56 497.76 358.08 499.32 364.6 500.22 371.36 500.42 378.29 500.63 385.21 500.17 392.31 499.02 399.49 497.94 406.68 496.25 413.62 494.05 420.27 491.95 426.91 489.34 433.27 486.29 439.26 483.35 445.26 479.95 450.92 476.15 456.16 472.45 461.42 468.31 466.28 463.8 470.68 459.34 475.11 454.48 479.09 449.26 482.57 444.07 486.09 438.49 489.12 432.58 491.6 426.68 494.14 420.43 496.14 413.89 497.54 407.34 499 400.51 499.88 393.43 500.09 386.35 500.37 379.38 499.98 372.59 498.96 365.81 497.99 359.22 496.39 352.91 494.2 346.62 492.05 340.62 489.3 334.99 486.02 329.39 482.74 324.18 478.93 319.44 474.63 314.75 470.33 310.54 465.55 306.9 460.35 303.32 455.14 300.31 449.51 297.96 443.53 295.68 437.54 294.05 431.21 293.15 424.59 292.31 417.97 292.2 411.07 292.88 403.95 293.6 396.83 295.06 389.82 297.18 383 299.32 376.17 302.1 369.52 305.43 363.12 308.76 356.7 312.64 350.52 316.99 344.65 321.32 338.76 326.12 333.16 331.31 327.94 336.48 322.71 342.05 317.85 347.94 313.45 353.82 309.05 360.03 305.12 366.51 301.76 372.98 298.43 379.72 295.69 386.68 293.65 393.63 291.67 400.8 290.41 408.1 289.98" stroke-dasharray="37 58" transform="rotate(0, 400, 400)" opacity="0.57"></path><path d="M407.35 303.11C413.73 302.82 419.92 303.27 425.84 304.38 431.76 305.57 437.41 307.41 442.73 309.84 453.32 314.89 462.5 322.17 469.77 331.07 476.9 340.06 482.08 350.54 484.89 361.93 486.26 367.63 487.07 373.54 487.27 379.61 487.48 385.68 487.11 391.9 486.13 398.2 485.21 404.51 483.74 410.6 481.8 416.44 479.94 422.27 477.61 427.86 474.88 433.13 469.67 443.7 462.79 453.07 454.63 460.83 446.67 468.69 437.27 475.01 426.79 479.39 421.57 481.64 416.07 483.42 410.32 484.67 404.57 485.98 398.59 486.76 392.41 486.96 386.23 487.21 380.16 486.86 374.26 485.97 368.37 485.12 362.66 483.7 357.2 481.79 346.33 478.02 336.52 472.18 328.35 464.66 320.33 457.17 314.03 447.98 309.98 437.53 307.35 429.55 305.18 412.19 305.76 402.92 306.41 396.68 307.71 390.52 309.58 384.52 311.47 378.52 313.92 372.67 316.86 367.02 322.75 355.71 330.55 345.22 339.73 336.07 348.87 326.88 359.4 319.07 370.83 313.24 376.54 310.36 382.47 308 388.58 306.25 394.69 304.55 400.97 303.48 407.35 303.11" stroke-dasharray="137 73" transform="rotate(0, 400, 400)" opacity="0.85"></path><path d="M406.24 316.24C417.16 315.81 427.33 317.83 436.34 321.86 445.31 326.07 453.07 332.18 459.19 339.7 465.23 347.3 469.63 356.21 472.04 365.93 474.43 375.66 474.92 386.18 473.25 397.01 471.74 407.85 468.34 417.99 463.52 427.08 458.92 436.2 452.86 444.31 445.7 451.05 438.69 457.87 430.47 463.38 421.38 467.2 412.32 471.17 402.33 473.51 391.75 473.83 381.18 474.3 371.04 472.7 361.78 469.36 352.57 466.12 344.3 461.09 337.45 454.65 330.69 448.23 325.42 440.36 322.06 431.41 318.85 422.47 317.58 412.46 318.64 401.73 319.82 390.99 323.19 380.55 328.25 370.83 333.34 361.09 340.08 352.07 348.01 344.21 355.92 336.35 365.02 329.69 374.87 324.76 384.71 319.92 395.32 316.9 406.24 316.24" stroke-dasharray="88 56" transform="rotate(0, 400, 400)" opacity="0.45"></path><path d="M404.83 329.37C413.9 329.01 422.31 330.65 429.74 333.93 437.14 337.34 443.52 342.33 448.56 348.5 453.56 354.73 457.21 362.08 459.24 370.13 461.26 378.2 461.71 386.95 460.37 396 459.12 405.04 456.27 413.54 452.2 421.18 448.27 428.84 443.09 435.67 437 441.37 431 447.13 424.01 451.8 416.33 455.06 408.69 458.42 400.3 460.41 391.5 460.69 382.69 461.09 374.3 459.74 366.68 456.94 359.09 454.21 352.31 450 346.73 444.61 341.2 439.25 336.91 432.68 334.21 425.21 331.6 417.76 330.6 409.4 331.53 400.43 332.54 391.46 335.36 382.73 339.6 374.61 343.87 366.47 349.52 358.94 356.16 352.41 362.8 345.88 370.44 340.39 378.67 336.34 386.91 332.36 395.76 329.9 404.83 329.37" stroke-dasharray="39 108" transform="rotate(0, 400, 400)" opacity="0.94"></path><path d="M403.19 342.51C410.41 342.21 417.1 343.49 422.99 346.06 428.86 348.71 433.92 352.62 437.92 357.47 441.9 362.37 444.83 368.17 446.47 374.57 448.12 380.98 448.53 387.96 447.48 395.21 446.5 402.46 444.21 409.3 440.91 415.46 437.7 421.64 433.47 427.18 428.49 431.81 423.58 436.49 417.88 440.29 411.66 442.96 405.46 445.69 398.7 447.32 391.65 447.56 384.6 447.88 377.93 446.79 371.91 444.53 365.9 442.32 360.57 438.92 356.2 434.58 351.86 430.26 348.51 424.99 346.42 418.99 344.39 413.01 343.63 406.3 344.41 399.11 345.24 391.92 347.52 384.92 350.92 378.41 354.35 371.9 358.88 365.89 364.21 360.69 369.55 355.5 375.68 351.15 382.27 347.97 388.88 344.83 395.96 342.9 403.19 342.51" stroke-dasharray="106 52" transform="rotate(0, 400, 400)" opacity="0.65"></path><path d="M401.39 355.64C412.19 355.24 421.31 359.48 427.31 366.62 433.27 373.85 436.14 383.82 434.6 394.7 433.2 405.58 427.79 415.34 420.16 422.39 412.66 429.53 402.79 434.09 392.21 434.43 381.63 434.95 372.3 431.17 365.86 424.58 359.49 418.06 356.12 408.66 357.29 397.84 358.6 387.03 364.2 376.81 372.19 369.07 380.21 361.37 390.58 356.25 401.39 355.64" stroke-dasharray="30 112" transform="rotate(0, 400, 400)" opacity="0.29"></path><path d="M399.52 368.77C409.72 369.87 421.73 383.95 421.71 394.5 420.79 401.75 417.14 408.32 411.98 413.11 406.88 417.94 400.21 421.04 393.15 421.3 383 420.36 370.44 407.08 370.18 396.7 371.06 389.47 374.8 382.69 380.11 377.58 385.45 372.5 392.35 369.15 399.52 368.77" stroke-dasharray="131 16" transform="rotate(0, 400, 400)" opacity="0.11"></path></g></svg>