<svg width="180" height="981" viewBox="0 0 180 981" fill="none" xmlns="http://www.w3.org/2000/svg">
<path d="M756 -111L868.351 -77.314L989.617 -84.2769L1082.06 -27.1651L1200.37 -6.72327L1263.84 68.2237L1367.62 114.069L1395.92 199.515L1475 266.277L1465.36 353.857L1512 435L1465.36 516.143L1475 603.723L1395.92 670.485L1367.62 755.931L1263.84 801.776L1200.37 876.723L1082.06 897.165L989.617 954.277L868.351 947.314L756 981L643.649 947.314L522.383 954.277L429.944 897.165L311.634 876.723L248.156 801.776L144.383 755.931L116.079 670.485L37.0013 603.723L46.6423 516.143L0 435L46.6423 353.857L37.0013 266.277L116.079 199.515L144.383 114.069L248.156 68.2237L311.634 -6.72327L429.944 -27.1651L522.383 -84.2769L643.649 -77.314L756 -111Z" fill="#AFB7FF"/>
</svg>
