<svg width="18" height="29" viewBox="0 0 18 29" fill="none" xmlns="http://www.w3.org/2000/svg">
<path d="M1.23947 12.2968L1.19338 12.1907C0.750227 11.1704 0.5 10.0453 0.5 8.86302C0.5 4.24296 4.24301 0.5 8.86308 0.5C13.4832 0.5 17.2262 4.24296 17.2262 8.86302C17.2262 10.0453 16.9759 11.1704 16.5328 12.1907L16.4867 12.2968L8.86308 27.2434L1.23947 12.2968ZM13.6524 8.91828C13.6524 6.23824 11.479 4.06492 8.79872 4.06492C6.11871 4.06492 3.94535 6.23826 3.94535 8.91828C3.94535 11.5983 6.11871 13.7716 8.79872 13.7716C11.479 13.7716 13.6524 11.5983 13.6524 8.91828Z" fill="#AFB7FF" stroke="#AFB7FF"/>
</svg>
