<svg width="381" height="24" viewBox="0 0 381 24" fill="none" xmlns="http://www.w3.org/2000/svg">
<path d="M0 21V18H15V15H3V12H0V9H3V6H18V9H6V12H18V15H21V18H18V21H0Z" fill="white"/>
<path d="M27 21V18H24V9H27V6H42V9H45V15H30V18H42V21H27ZM30 12H39V9H30V12Z" fill="white"/>
<path d="M51 21V18H57V3H54V0H63V18H69V21H51Z" fill="white"/>
<path d="M75 21V18H72V9H75V6H90V9H93V15H78V18H90V21H75ZM78 12H87V9H78V12Z" fill="white"/>
<path d="M99 21V18H96V9H99V6H117V9H102V18H117V21H99Z" fill="white"/>
<path d="M129 21V9H123V6H129V0H135V6H141V9H135V21H129Z" fill="white"/>
<path d="M171 21V18H168V15H171V12H183V9H171V6H186V9H189V21H171ZM174 18H183V15H174V18Z" fill="white"/>
<path d="M216 24V6H234V9H237V15H234V18H222V24H216ZM222 15H231V9H222V15Z" fill="white"/>
<path d="M249 9H252V12H249V21H243V6H249V9ZM261 6V9H252V6H261Z" fill="white"/>
<path d="M267 21V18H264V9H267V6H282V9H285V18H282V21H267ZM270 18H279V9H270V18Z" fill="white"/>
<path d="M300 3V0H306V3H300ZM291 24V21H300V9H297V6H306V21H303V24H291Z" fill="white"/>
<path d="M315 21V18H312V9H315V6H330V9H333V15H318V18H330V21H315ZM318 12H327V9H318V12Z" fill="white"/>
<path d="M339 21V18H336V9H339V6H357V9H342V18H357V21H339Z" fill="white"/>
<path d="M369 21V9H363V6H369V0H375V6H381V9H375V21H369Z" fill="white"/>
</svg>
