<svg width="82" height="85" viewBox="0 0 82 85" fill="none" xmlns="http://www.w3.org/2000/svg">
<path d="M46.8571 -1.53614e-06L70.2857 -5.12047e-07L70.2857 15.4545L46.8571 15.4545L46.8571 -1.53614e-06ZM11.7143 -3.07229e-06L35.1429 -2.04819e-06L35.1429 15.4545L11.7143 15.4545L11.7143 -3.07229e-06Z" fill="#AFB7FF"/>
<path d="M1.97971e-08 54.0909L11.7143 54.0909L11.7143 61.8182L23.4286 61.8182L23.4286 69.5455L58.5714 69.5455L58.5714 61.8182L70.2857 61.8182L70.2857 54.0909L82 54.0909L82 69.5455L70.2857 69.5455L70.2857 77.2727L58.5714 77.2727L58.5714 85L23.4286 85L23.4286 77.2727L11.7143 77.2727L11.7143 69.5454L-6.55742e-07 69.5454L1.97971e-08 54.0909Z" fill="#AFB7FF"/>
</svg>
