<svg xmlns="http://www.w3.org/2000/svg" version="1.1" xmlns:xlink="http://www.w3.org/1999/xlink" xmlns:svgjs="http://svgjs.dev/svgjs" viewBox="0 0 800 800"><g stroke-width="1.5" stroke="#ffc690" fill="none" stroke-linecap="round" transform="matrix(1,0,0,1,-5,359.43915021419525)"><path d="M10,10C24.583333333333332,10.208333333333334,48.75,13.291666666666666,80,11C111.25,8.708333333333334,126.66666666666666,-0.7916666666666667,160,-1C193.33333333333334,-1.2083333333333333,206.66666666666666,9.583333333333334,240,10C273.3333333333333,10.416666666666666,286.6666666666667,-0.4583333333333335,320,1C353.3333333333333,2.4583333333333335,366.6666666666667,16.375,400,17C433.3333333333333,17.625,446.6666666666667,3.7916666666666665,480,4C513.3333333333334,4.208333333333333,526.6666666666666,16.541666666666668,560,18C593.3333333333334,19.458333333333332,606.6666666666666,10.166666666666666,640,11C673.3333333333334,11.833333333333334,686.6666666666666,20.958333333333332,720,22C753.3333333333334,23.041666666666668,783.3333333333334,17.25,800,16"></path><path d="M10,10C24.583333333333332,10.208333333333334,48.75,13.291666666666666,80,11C111.25,8.708333333333334,126.66666666666666,-0.7916666666666667,160,-1C193.33333333333334,-1.2083333333333333,206.66666666666666,9.583333333333334,240,10C273.3333333333333,10.416666666666666,286.6666666666667,-0.4583333333333335,320,1C353.3333333333333,2.4583333333333335,366.6666666666667,16.375,400,17C433.3333333333333,17.625,446.6666666666667,3.7916666666666665,480,4C513.3333333333334,4.208333333333333,526.6666666666666,16.541666666666668,560,18C593.3333333333334,19.458333333333332,606.6666666666666,10.166666666666666,640,11C673.3333333333334,11.833333333333334,686.6666666666666,20.958333333333332,720,22C753.3333333333334,23.041666666666668,783.3333333333334,17.25,800,16" transform="matrix(1,0,0,1,0,60)"></path><path d="M10,10C24.583333333333332,10.208333333333334,48.75,13.291666666666666,80,11C111.25,8.708333333333334,126.66666666666666,-0.7916666666666667,160,-1C193.33333333333334,-1.2083333333333333,206.66666666666666,9.583333333333334,240,10C273.3333333333333,10.416666666666666,286.6666666666667,-0.4583333333333335,320,1C353.3333333333333,2.4583333333333335,366.6666666666667,16.375,400,17C433.3333333333333,17.625,446.6666666666667,3.7916666666666665,480,4C513.3333333333334,4.208333333333333,526.6666666666666,16.541666666666668,560,18C593.3333333333334,19.458333333333332,606.6666666666666,10.166666666666666,640,11C673.3333333333334,11.833333333333334,686.6666666666666,20.958333333333332,720,22C753.3333333333334,23.041666666666668,783.3333333333334,17.25,800,16" transform="matrix(1,0,0,1,0,50)"></path><path d="M10,10C24.583333333333332,10.208333333333334,48.75,13.291666666666666,80,11C111.25,8.708333333333334,126.66666666666666,-0.7916666666666667,160,-1C193.33333333333334,-1.2083333333333333,206.66666666666666,9.583333333333334,240,10C273.3333333333333,10.416666666666666,286.6666666666667,-0.4583333333333335,320,1C353.3333333333333,2.4583333333333335,366.6666666666667,16.375,400,17C433.3333333333333,17.625,446.6666666666667,3.7916666666666665,480,4C513.3333333333334,4.208333333333333,526.6666666666666,16.541666666666668,560,18C593.3333333333334,19.458333333333332,606.6666666666666,10.166666666666666,640,11C673.3333333333334,11.833333333333334,686.6666666666666,20.958333333333332,720,22C753.3333333333334,23.041666666666668,783.3333333333334,17.25,800,16" transform="matrix(1,0,0,1,0,40)"></path><path d="M10,10C24.583333333333332,10.208333333333334,48.75,13.291666666666666,80,11C111.25,8.708333333333334,126.66666666666666,-0.7916666666666667,160,-1C193.33333333333334,-1.2083333333333333,206.66666666666666,9.583333333333334,240,10C273.3333333333333,10.416666666666666,286.6666666666667,-0.4583333333333335,320,1C353.3333333333333,2.4583333333333335,366.6666666666667,16.375,400,17C433.3333333333333,17.625,446.6666666666667,3.7916666666666665,480,4C513.3333333333334,4.208333333333333,526.6666666666666,16.541666666666668,560,18C593.3333333333334,19.458333333333332,606.6666666666666,10.166666666666666,640,11C673.3333333333334,11.833333333333334,686.6666666666666,20.958333333333332,720,22C753.3333333333334,23.041666666666668,783.3333333333334,17.25,800,16" transform="matrix(1,0,0,1,0,30)"></path><path d="M10,10C24.583333333333332,10.208333333333334,48.75,13.291666666666666,80,11C111.25,8.708333333333334,126.66666666666666,-0.7916666666666667,160,-1C193.33333333333334,-1.2083333333333333,206.66666666666666,9.583333333333334,240,10C273.3333333333333,10.416666666666666,286.6666666666667,-0.4583333333333335,320,1C353.3333333333333,2.4583333333333335,366.6666666666667,16.375,400,17C433.3333333333333,17.625,446.6666666666667,3.7916666666666665,480,4C513.3333333333334,4.208333333333333,526.6666666666666,16.541666666666668,560,18C593.3333333333334,19.458333333333332,606.6666666666666,10.166666666666666,640,11C673.3333333333334,11.833333333333334,686.6666666666666,20.958333333333332,720,22C753.3333333333334,23.041666666666668,783.3333333333334,17.25,800,16" transform="matrix(1,0,0,1,0,20)"></path><path d="M10,10C24.583333333333332,10.208333333333334,48.75,13.291666666666666,80,11C111.25,8.708333333333334,126.66666666666666,-0.7916666666666667,160,-1C193.33333333333334,-1.2083333333333333,206.66666666666666,9.583333333333334,240,10C273.3333333333333,10.416666666666666,286.6666666666667,-0.4583333333333335,320,1C353.3333333333333,2.4583333333333335,366.6666666666667,16.375,400,17C433.3333333333333,17.625,446.6666666666667,3.7916666666666665,480,4C513.3333333333334,4.208333333333333,526.6666666666666,16.541666666666668,560,18C593.3333333333334,19.458333333333332,606.6666666666666,10.166666666666666,640,11C673.3333333333334,11.833333333333334,686.6666666666666,20.958333333333332,720,22C753.3333333333334,23.041666666666668,783.3333333333334,17.25,800,16" transform="matrix(1,0,0,1,0,10)"></path></g></svg>