<svg xmlns="http://www.w3.org/2000/svg" version="1.1" xmlns:xlink="http://www.w3.org/1999/xlink" xmlns:svgjs="http://svgjs.dev/svgjs" viewBox="0 0 2400 800"><defs><linearGradient x1="50%" y1="0%" x2="50%" y2="100%" id="sssurf-grad"><stop stop-color="#AFB7FF" stop-opacity="1" offset="0%"></stop><stop stop-color="#FFC690" stop-opacity="1" offset="100%"></stop></linearGradient></defs><g fill="url(#sssurf-grad)" transform="matrix(1,0,0,1,10.8282470703125,219.51803588867188)"><path d="M-10,10C33.75,11.25,114.58333333333334,21.208333333333336,200,16C285.41666666666663,10.791666666666666,316.66666666666663,-20.833333333333336,400,-15C483.33333333333337,-9.166666666666666,516.6666666666666,42.958333333333336,600,44C683.3333333333334,45.041666666666664,716.6666666666666,-9.375,800,-10C883.3333333333334,-10.625,916.6666666666666,42.041666666666664,1000,41C1083.3333333333333,39.958333333333336,1116.6666666666667,-17.5,1200,-15C1283.3333333333333,-12.5,1316.6666666666667,51.333333333333336,1400,53C1483.3333333333333,54.666666666666664,1516.6666666666667,-2.625,1600,-7C1683.3333333333333,-11.375,1716.6666666666667,29.291666666666668,1800,32C1883.3333333333333,34.708333333333336,1916.6666666666667,6,2000,6C2083.3333333333335,6,2118.75,31.166666666666668,2200,32C2281.25,32.833333333333336,2296.25,-66.66666666666667,2390,10C2483.75,86.66666666666667,3252.0833333333335,214.58333333333331,2650,400C2047.9166666666665,585.4166666666667,156.25,795.8333333333334,-500,900" transform="matrix(1,0,0,1,0,35)" opacity="0.05"></path><path d="M-10,10C33.75,11.25,114.58333333333334,21.208333333333336,200,16C285.41666666666663,10.791666666666666,316.66666666666663,-20.833333333333336,400,-15C483.33333333333337,-9.166666666666666,516.6666666666666,42.958333333333336,600,44C683.3333333333334,45.041666666666664,716.6666666666666,-9.375,800,-10C883.3333333333334,-10.625,916.6666666666666,42.041666666666664,1000,41C1083.3333333333333,39.958333333333336,1116.6666666666667,-17.5,1200,-15C1283.3333333333333,-12.5,1316.6666666666667,51.333333333333336,1400,53C1483.3333333333333,54.666666666666664,1516.6666666666667,-2.625,1600,-7C1683.3333333333333,-11.375,1716.6666666666667,29.291666666666668,1800,32C1883.3333333333333,34.708333333333336,1916.6666666666667,6,2000,6C2083.3333333333335,6,2118.75,31.166666666666668,2200,32C2281.25,32.833333333333336,2296.25,-66.66666666666667,2390,10C2483.75,86.66666666666667,3252.0833333333335,214.58333333333331,2650,400C2047.9166666666665,585.4166666666667,156.25,795.8333333333334,-500,900" transform="matrix(1,0,0,1,0,70)" opacity="0.21"></path><path d="M-10,10C33.75,11.25,114.58333333333334,21.208333333333336,200,16C285.41666666666663,10.791666666666666,316.66666666666663,-20.833333333333336,400,-15C483.33333333333337,-9.166666666666666,516.6666666666666,42.958333333333336,600,44C683.3333333333334,45.041666666666664,716.6666666666666,-9.375,800,-10C883.3333333333334,-10.625,916.6666666666666,42.041666666666664,1000,41C1083.3333333333333,39.958333333333336,1116.6666666666667,-17.5,1200,-15C1283.3333333333333,-12.5,1316.6666666666667,51.333333333333336,1400,53C1483.3333333333333,54.666666666666664,1516.6666666666667,-2.625,1600,-7C1683.3333333333333,-11.375,1716.6666666666667,29.291666666666668,1800,32C1883.3333333333333,34.708333333333336,1916.6666666666667,6,2000,6C2083.3333333333335,6,2118.75,31.166666666666668,2200,32C2281.25,32.833333333333336,2296.25,-66.66666666666667,2390,10C2483.75,86.66666666666667,3252.0833333333335,214.58333333333331,2650,400C2047.9166666666665,585.4166666666667,156.25,795.8333333333334,-500,900" transform="matrix(1,0,0,1,0,105)" opacity="0.37"></path><path d="M-10,10C33.75,11.25,114.58333333333334,21.208333333333336,200,16C285.41666666666663,10.791666666666666,316.66666666666663,-20.833333333333336,400,-15C483.33333333333337,-9.166666666666666,516.6666666666666,42.958333333333336,600,44C683.3333333333334,45.041666666666664,716.6666666666666,-9.375,800,-10C883.3333333333334,-10.625,916.6666666666666,42.041666666666664,1000,41C1083.3333333333333,39.958333333333336,1116.6666666666667,-17.5,1200,-15C1283.3333333333333,-12.5,1316.6666666666667,51.333333333333336,1400,53C1483.3333333333333,54.666666666666664,1516.6666666666667,-2.625,1600,-7C1683.3333333333333,-11.375,1716.6666666666667,29.291666666666668,1800,32C1883.3333333333333,34.708333333333336,1916.6666666666667,6,2000,6C2083.3333333333335,6,2118.75,31.166666666666668,2200,32C2281.25,32.833333333333336,2296.25,-66.66666666666667,2390,10C2483.75,86.66666666666667,3252.0833333333335,214.58333333333331,2650,400C2047.9166666666665,585.4166666666667,156.25,795.8333333333334,-500,900" transform="matrix(1,0,0,1,0,140)" opacity="0.53"></path><path d="M-10,10C33.75,11.25,114.58333333333334,21.208333333333336,200,16C285.41666666666663,10.791666666666666,316.66666666666663,-20.833333333333336,400,-15C483.33333333333337,-9.166666666666666,516.6666666666666,42.958333333333336,600,44C683.3333333333334,45.041666666666664,716.6666666666666,-9.375,800,-10C883.3333333333334,-10.625,916.6666666666666,42.041666666666664,1000,41C1083.3333333333333,39.958333333333336,1116.6666666666667,-17.5,1200,-15C1283.3333333333333,-12.5,1316.6666666666667,51.333333333333336,1400,53C1483.3333333333333,54.666666666666664,1516.6666666666667,-2.625,1600,-7C1683.3333333333333,-11.375,1716.6666666666667,29.291666666666668,1800,32C1883.3333333333333,34.708333333333336,1916.6666666666667,6,2000,6C2083.3333333333335,6,2118.75,31.166666666666668,2200,32C2281.25,32.833333333333336,2296.25,-66.66666666666667,2390,10C2483.75,86.66666666666667,3252.0833333333335,214.58333333333331,2650,400C2047.9166666666665,585.4166666666667,156.25,795.8333333333334,-500,900" transform="matrix(1,0,0,1,0,175)" opacity="0.68"></path><path d="M-10,10C33.75,11.25,114.58333333333334,21.208333333333336,200,16C285.41666666666663,10.791666666666666,316.66666666666663,-20.833333333333336,400,-15C483.33333333333337,-9.166666666666666,516.6666666666666,42.958333333333336,600,44C683.3333333333334,45.041666666666664,716.6666666666666,-9.375,800,-10C883.3333333333334,-10.625,916.6666666666666,42.041666666666664,1000,41C1083.3333333333333,39.958333333333336,1116.6666666666667,-17.5,1200,-15C1283.3333333333333,-12.5,1316.6666666666667,51.333333333333336,1400,53C1483.3333333333333,54.666666666666664,1516.6666666666667,-2.625,1600,-7C1683.3333333333333,-11.375,1716.6666666666667,29.291666666666668,1800,32C1883.3333333333333,34.708333333333336,1916.6666666666667,6,2000,6C2083.3333333333335,6,2118.75,31.166666666666668,2200,32C2281.25,32.833333333333336,2296.25,-66.66666666666667,2390,10C2483.75,86.66666666666667,3252.0833333333335,214.58333333333331,2650,400C2047.9166666666665,585.4166666666667,156.25,795.8333333333334,-500,900" transform="matrix(1,0,0,1,0,210)" opacity="0.84"></path><path d="M-10,10C33.75,11.25,114.58333333333334,21.208333333333336,200,16C285.41666666666663,10.791666666666666,316.66666666666663,-20.833333333333336,400,-15C483.33333333333337,-9.166666666666666,516.6666666666666,42.958333333333336,600,44C683.3333333333334,45.041666666666664,716.6666666666666,-9.375,800,-10C883.3333333333334,-10.625,916.6666666666666,42.041666666666664,1000,41C1083.3333333333333,39.958333333333336,1116.6666666666667,-17.5,1200,-15C1283.3333333333333,-12.5,1316.6666666666667,51.333333333333336,1400,53C1483.3333333333333,54.666666666666664,1516.6666666666667,-2.625,1600,-7C1683.3333333333333,-11.375,1716.6666666666667,29.291666666666668,1800,32C1883.3333333333333,34.708333333333336,1916.6666666666667,6,2000,6C2083.3333333333335,6,2118.75,31.166666666666668,2200,32C2281.25,32.833333333333336,2296.25,-66.66666666666667,2390,10C2483.75,86.66666666666667,3252.0833333333335,214.58333333333331,2650,400C2047.9166666666665,585.4166666666667,156.25,795.8333333333334,-500,900" transform="matrix(1,0,0,1,0,245)" opacity="1"></path></g></svg>