<svg width="1512" height="205" viewBox="0 0 1512 205" fill="none" xmlns="http://www.w3.org/2000/svg">
<path d="M756 0L868.351 33.686L989.617 26.7231L1082.06 83.8349L1200.37 104.277L1263.84 179.224L1367.62 225.069L1395.92 310.515L1475 377.277L1465.36 464.857L1512 546L1465.36 627.143L1475 714.723L1395.92 781.485L1367.62 866.931L1263.84 912.776L1200.37 987.723L1082.06 1008.17L989.617 1065.28L868.351 1058.31L756 1092L643.649 1058.31L522.383 1065.28L429.944 1008.17L311.634 987.723L248.156 912.776L144.383 866.931L116.079 781.485L37.0013 714.723L46.6423 627.143L0 546L46.6423 464.857L37.0013 377.277L116.079 310.515L144.383 225.069L248.156 179.224L311.634 104.277L429.944 83.8349L522.383 26.7231L643.649 33.686L756 0Z" fill="#000850"/>
</svg>
