<svg width="100%" height="100%" viewBox="0 0 1500 300" preserveAspectRatio="none" fill="none" xmlns="http://www.w3.org/2000/svg">
<path d="M868.208 34.165L868.292 34.1903L868.38 34.1852L989.488 27.2314L1081.79 84.2603L1081.88 84.3112L1081.97 84.3276L1200.1 104.738L1263.46 179.547L1263.54 179.635L1263.64 179.681L1367.21 225.437L1395.45 310.672L1395.49 310.806L1395.6 310.897L1474.47 377.487L1464.86 464.803L1464.84 464.965L1464.92 465.107L1511.42 546L1464.92 626.893L1464.84 627.035L1464.86 627.197L1474.47 714.513L1395.6 781.103L1395.49 781.194L1395.45 781.328L1367.21 866.563L1263.64 912.319L1263.54 912.365L1263.46 912.453L1200.1 987.262L1081.97 1007.67L1081.88 1007.69L1081.79 1007.74L989.488 1064.77L868.38 1057.81L868.292 1057.81L868.208 1057.84L756 1091.48L643.792 1057.84L643.708 1057.81L643.62 1057.81L522.512 1064.77L430.207 1007.74L430.125 1007.69L430.029 1007.67L311.898 987.262L248.537 912.453L248.463 912.365L248.358 912.319L144.788 866.563L116.554 781.328L116.509 781.194L116.402 781.103L37.5274 714.513L47.1393 627.197L47.1571 627.035L47.0758 626.893L0.576736 546L47.0758 465.107L47.1571 464.965L47.1393 464.803L37.5274 377.487L116.402 310.897L116.509 310.806L116.554 310.672L144.788 225.437L248.358 179.681L248.463 179.635L248.537 179.547L311.898 104.739L430.029 84.3276L430.125 84.3112L430.207 84.2603L522.512 27.2314L643.62 34.1852L643.708 34.1903L643.792 34.165L756 0.521996L868.208 34.165Z" stroke="#FFC691"/>
</svg>
